<mxfile host="app.diagrams.net" modified="2024-06-09T16:09:13.943Z" agent="Mozilla/5.0 (Windows NT 10.0; Win64; x64) AppleWebKit/537.36 (KHTML, like Gecko) Chrome/125.0.0.0 Safari/537.36 Edg/125.0.0.0" etag="MUz5hHhElb2g-SPSNOKy" version="24.5.2" type="github">
  <diagram name="第 1 页" id="go4AHsTytAA7jP5cwm7e">
    <mxGraphModel dx="1426" dy="799" grid="1" gridSize="10" guides="1" tooltips="1" connect="1" arrows="1" fold="1" page="1" pageScale="1" pageWidth="827" pageHeight="1169" math="0" shadow="0">
      <root>
        <mxCell id="0" />
        <mxCell id="1" parent="0" />
        <mxCell id="ltYE0Pw-gyzapklKZxc6-17" value="" style="edgeStyle=orthogonalEdgeStyle;rounded=0;orthogonalLoop=1;jettySize=auto;html=1;" edge="1" parent="1" source="ltYE0Pw-gyzapklKZxc6-1" target="ltYE0Pw-gyzapklKZxc6-16">
          <mxGeometry relative="1" as="geometry" />
        </mxCell>
        <mxCell id="ltYE0Pw-gyzapklKZxc6-1" value="STM32" style="rounded=0;whiteSpace=wrap;html=1;" vertex="1" parent="1">
          <mxGeometry x="354" y="210" width="120" height="60" as="geometry" />
        </mxCell>
        <mxCell id="ltYE0Pw-gyzapklKZxc6-3" value="" style="edgeStyle=orthogonalEdgeStyle;rounded=0;orthogonalLoop=1;jettySize=auto;html=1;" edge="1" parent="1" source="ltYE0Pw-gyzapklKZxc6-2" target="ltYE0Pw-gyzapklKZxc6-1">
          <mxGeometry relative="1" as="geometry" />
        </mxCell>
        <mxCell id="ltYE0Pw-gyzapklKZxc6-14" value="" style="edgeStyle=orthogonalEdgeStyle;rounded=0;orthogonalLoop=1;jettySize=auto;html=1;" edge="1" parent="1" source="ltYE0Pw-gyzapklKZxc6-4" target="ltYE0Pw-gyzapklKZxc6-2">
          <mxGeometry relative="1" as="geometry" />
        </mxCell>
        <mxCell id="ltYE0Pw-gyzapklKZxc6-4" value="电源" style="rounded=0;whiteSpace=wrap;html=1;" vertex="1" parent="1">
          <mxGeometry x="540" y="100" width="120" height="60" as="geometry" />
        </mxCell>
        <mxCell id="ltYE0Pw-gyzapklKZxc6-7" value="串口" style="text;html=1;align=center;verticalAlign=middle;resizable=0;points=[];autosize=1;strokeColor=none;fillColor=none;" vertex="1" parent="1">
          <mxGeometry x="405" y="170" width="50" height="30" as="geometry" />
        </mxCell>
        <mxCell id="ltYE0Pw-gyzapklKZxc6-8" value="摄像头" style="rounded=0;whiteSpace=wrap;html=1;direction=west;" vertex="1" parent="1">
          <mxGeometry x="160" y="100" width="120" height="60" as="geometry" />
        </mxCell>
        <mxCell id="ltYE0Pw-gyzapklKZxc6-12" value="usb" style="text;html=1;align=center;verticalAlign=middle;resizable=0;points=[];autosize=1;strokeColor=none;fillColor=none;" vertex="1" parent="1">
          <mxGeometry x="300" y="100" width="40" height="30" as="geometry" />
        </mxCell>
        <mxCell id="ltYE0Pw-gyzapklKZxc6-13" value="" style="edgeStyle=orthogonalEdgeStyle;rounded=0;orthogonalLoop=1;jettySize=auto;html=1;" edge="1" parent="1" source="ltYE0Pw-gyzapklKZxc6-8" target="ltYE0Pw-gyzapklKZxc6-2">
          <mxGeometry relative="1" as="geometry">
            <mxPoint x="330" y="180" as="sourcePoint" />
            <mxPoint x="450" y="180" as="targetPoint" />
          </mxGeometry>
        </mxCell>
        <mxCell id="ltYE0Pw-gyzapklKZxc6-2" value="RDK-X3" style="rounded=0;whiteSpace=wrap;html=1;direction=west;" vertex="1" parent="1">
          <mxGeometry x="354" y="100" width="120" height="60" as="geometry" />
        </mxCell>
        <mxCell id="ltYE0Pw-gyzapklKZxc6-15" value="" style="endArrow=classic;html=1;rounded=0;exitX=0.5;exitY=1;exitDx=0;exitDy=0;entryX=1;entryY=0.5;entryDx=0;entryDy=0;" edge="1" parent="1" source="ltYE0Pw-gyzapklKZxc6-4" target="ltYE0Pw-gyzapklKZxc6-1">
          <mxGeometry width="50" height="50" relative="1" as="geometry">
            <mxPoint x="390" y="300" as="sourcePoint" />
            <mxPoint x="440" y="250" as="targetPoint" />
            <Array as="points">
              <mxPoint x="600" y="240" />
            </Array>
          </mxGeometry>
        </mxCell>
        <mxCell id="ltYE0Pw-gyzapklKZxc6-16" value="舵机、电机" style="rounded=0;whiteSpace=wrap;html=1;" vertex="1" parent="1">
          <mxGeometry x="160" y="210" width="120" height="60" as="geometry" />
        </mxCell>
        <mxCell id="ltYE0Pw-gyzapklKZxc6-19" value="" style="edgeStyle=orthogonalEdgeStyle;rounded=0;orthogonalLoop=1;jettySize=auto;html=1;" edge="1" parent="1" source="ltYE0Pw-gyzapklKZxc6-18" target="ltYE0Pw-gyzapklKZxc6-1">
          <mxGeometry relative="1" as="geometry" />
        </mxCell>
        <mxCell id="ltYE0Pw-gyzapklKZxc6-18" value="编码器" style="rounded=0;whiteSpace=wrap;html=1;" vertex="1" parent="1">
          <mxGeometry x="354" y="320" width="120" height="60" as="geometry" />
        </mxCell>
        <mxCell id="ltYE0Pw-gyzapklKZxc6-20" value="" style="endArrow=classic;html=1;rounded=0;exitX=0.5;exitY=1;exitDx=0;exitDy=0;entryX=0;entryY=0.5;entryDx=0;entryDy=0;" edge="1" parent="1" source="ltYE0Pw-gyzapklKZxc6-16" target="ltYE0Pw-gyzapklKZxc6-18">
          <mxGeometry width="50" height="50" relative="1" as="geometry">
            <mxPoint x="390" y="300" as="sourcePoint" />
            <mxPoint x="440" y="250" as="targetPoint" />
            <Array as="points">
              <mxPoint x="220" y="350" />
            </Array>
          </mxGeometry>
        </mxCell>
      </root>
    </mxGraphModel>
  </diagram>
</mxfile>
